<?xml version="1.0" encoding="UTF-8"?>
<svg id="Layer_1" data-name="Layer 1" xmlns="http://www.w3.org/2000/svg" version="1.1" viewBox="0 0 70 70">
  <defs>
    <style>
      .cls-1 {
        fill: none;
      }

      .cls-1, .cls-2 {
        stroke-width: 0px;
      }

      .cls-2 {
        fill: #fff;
      }
    </style>
  </defs>
  <g id="Layer_2" data-name="Layer 2">
    <g id="Page_Elements" data-name="Page Elements">
      <rect class="cls-1" width="70" height="70"/>
    </g>
  </g>
  <g id="surface1">
    <path class="cls-2" d="M35,12.7c-12.3,0-22.3,10-22.3,22.3s10,22.3,22.3,22.3,22.3-10,22.3-22.3-10-22.3-22.3-22.3ZM31.8,14.7c-3.1,2.2-5.6,4.7-7.6,7.2h-5.1c3.1-3.8,7.6-6.4,12.6-7.2ZM38.2,14.7c5.1.8,9.5,3.4,12.6,7.2h-5.1c-2-2.6-4.5-5-7.6-7.2ZM32.5,16.3c-1,1.9-1.9,3.8-2.6,5.6h-3.5c1.6-2,3.7-3.8,6.1-5.6h0ZM37.5,16.3c2.4,1.8,4.4,3.6,6.1,5.6h-3.5c-.7-1.8-1.6-3.7-2.6-5.6ZM34.1,16.8v5.1h-2.4c.7-1.7,1.5-3.3,2.4-5.1ZM35.9,16.8c.9,1.7,1.7,3.4,2.4,5.1h-2.4v-5.1ZM17.9,23.6h5.1c-.9,1.4-1.7,2.9-2.3,4.4h-5.1c.6-1.6,1.3-3,2.2-4.4ZM25.1,23.6h4.2c-.5,1.5-.9,2.9-1.2,4.4h-5.5c.6-1.5,1.5-3,2.5-4.4ZM31.1,23.6h3.1v4.4h-4.4c.3-1.5.8-2.9,1.3-4.4ZM35.9,23.6h3.1c.5,1.5,1,2.9,1.3,4.4h-4.4v-4.4ZM40.8,23.6h4.2c1,1.4,1.9,2.9,2.5,4.4h-5.5c-.3-1.5-.7-2.9-1.2-4.4ZM47,23.6h5.1c.9,1.4,1.7,2.8,2.2,4.4h-5.1c-.6-1.5-1.4-3-2.3-4.4ZM15.1,29.7h5c-.4,1.5-.7,2.9-.8,4.4h-4.8c0-1.5.3-3,.7-4.4ZM21.9,29.7h5.8c-.2,1.5-.4,2.9-.4,4.4h-6.3c.1-1.5.4-2.9.9-4.4ZM29.4,29.7h4.7v4.4h-5.2c0-1.5.2-2.9.5-4.4ZM35.9,29.7h4.7c.3,1.5.4,2.9.5,4.4h-5.2v-4.4ZM42.3,29.7h5.8c.5,1.5.8,2.9.9,4.4h-6.3c0-1.5-.2-2.9-.4-4.4ZM49.9,29.7h5c.4,1.4.6,2.9.7,4.4h-4.8c-.1-1.5-.4-2.9-.8-4.4ZM14.4,35.9h4.8c0,1.5.2,3,.6,4.4h-4.7c-.4-1.4-.6-2.9-.7-4.4ZM20.9,35.9h6.3c0,1.5.2,2.9.4,4.4h-6.1c-.4-1.5-.6-2.9-.6-4.4ZM29,35.9h5.2v4.4h-4.7c-.3-1.5-.4-2.9-.4-4.4h0ZM35.9,35.9h5.2c0,1.5-.2,2.9-.5,4.4h-4.7v-4.4ZM42.7,35.9h6.3c0,1.5-.2,2.9-.6,4.4h-6.1c.2-1.5.4-2.9.4-4.4ZM50.8,35.9h4.8c0,1.5-.3,3-.7,4.4h-4.7c.4-1.4.5-2.9.6-4.4ZM15.6,42h4.7c.5,1.5,1.2,3,2.1,4.4h-4.6c-.9-1.4-1.7-2.8-2.2-4.4ZM22.1,42h5.9c.3,1.5.7,2.9,1.2,4.4h-4.8c-1-1.4-1.8-2.9-2.3-4.4ZM29.8,42h4.4v4.4h-3.1c-.5-1.5-1-2.9-1.3-4.4ZM35.9,42h4.4c-.3,1.5-.8,2.9-1.3,4.4h-3.1v-4.4ZM42,42h5.9c-.6,1.5-1.3,3-2.3,4.4h-4.8c.5-1.5.9-2.9,1.2-4.4ZM49.7,42h4.7c-.6,1.6-1.3,3-2.2,4.4h-4.6c.9-1.4,1.6-2.9,2.1-4.4ZM19.1,48.1h4.5c1.9,2.6,4.5,5,7.7,7.1-4.9-.9-9.2-3.5-12.2-7.1ZM25.8,48.1h4.1c.8,2,1.7,3.9,2.8,5.9-2.8-1.8-5.1-3.8-6.9-5.9ZM31.7,48.1h2.4v5.1c-.9-1.7-1.7-3.4-2.4-5.1h0ZM35.9,48.1h2.4c-.7,1.7-1.5,3.3-2.4,5.1v-5.1ZM40.1,48.1h4.1c-1.8,2.1-4.1,4.1-6.9,5.9,1.1-2,2-4,2.8-5.9h0ZM46.4,48.1h4.5c-3,3.7-7.3,6.3-12.2,7.1,3.2-2.1,5.8-4.5,7.7-7.1Z"/>
  </g>
</svg>